<mxfile host="app.diagrams.net" agent="Mozilla/5.0 (Windows NT 10.0; Win64; x64) AppleWebKit/537.36 (KHTML, like Gecko) Chrome/130.0.0.0 Safari/537.36" version="24.8.3">
  <diagram name="Страница — 1" id="e5ddy8v8cu5VcoW_Qt8O">
    <mxGraphModel dx="1434" dy="738" grid="1" gridSize="10" guides="1" tooltips="1" connect="1" arrows="1" fold="1" page="1" pageScale="1" pageWidth="827" pageHeight="1169" math="0" shadow="0">
      <root>
        <mxCell id="0" />
        <mxCell id="1" parent="0" />
        <mxCell id="vVWYD3wmoiTeweGa2D6N-1" value="Actor" style="shape=umlActor;verticalLabelPosition=bottom;verticalAlign=top;html=1;outlineConnect=0;" vertex="1" parent="1">
          <mxGeometry x="399" y="450" width="30" height="60" as="geometry" />
        </mxCell>
        <mxCell id="vVWYD3wmoiTeweGa2D6N-2" value="Actor" style="shape=umlActor;verticalLabelPosition=bottom;verticalAlign=top;html=1;outlineConnect=0;" vertex="1" parent="1">
          <mxGeometry x="80" y="460" width="30" height="60" as="geometry" />
        </mxCell>
        <mxCell id="vVWYD3wmoiTeweGa2D6N-3" value="Actor" style="shape=umlActor;verticalLabelPosition=bottom;verticalAlign=top;html=1;outlineConnect=0;" vertex="1" parent="1">
          <mxGeometry x="670" y="460" width="30" height="60" as="geometry" />
        </mxCell>
        <mxCell id="vVWYD3wmoiTeweGa2D6N-4" value="sign_up" style="ellipse;whiteSpace=wrap;html=1;" vertex="1" parent="1">
          <mxGeometry x="354" y="10" width="120" height="80" as="geometry" />
        </mxCell>
        <mxCell id="vVWYD3wmoiTeweGa2D6N-5" value="" style="ellipse;whiteSpace=wrap;html=1;" vertex="1" parent="1">
          <mxGeometry x="354" y="170" width="120" height="80" as="geometry" />
        </mxCell>
        <mxCell id="vVWYD3wmoiTeweGa2D6N-6" value="server" style="ellipse;whiteSpace=wrap;html=1;" vertex="1" parent="1">
          <mxGeometry x="640" y="100" width="120" height="80" as="geometry" />
        </mxCell>
        <mxCell id="vVWYD3wmoiTeweGa2D6N-7" value="" style="endArrow=none;html=1;rounded=0;entryX=0;entryY=0.5;entryDx=0;entryDy=0;exitX=1;exitY=0.5;exitDx=0;exitDy=0;" edge="1" parent="1" source="vVWYD3wmoiTeweGa2D6N-4" target="vVWYD3wmoiTeweGa2D6N-6">
          <mxGeometry width="50" height="50" relative="1" as="geometry">
            <mxPoint x="390" y="310" as="sourcePoint" />
            <mxPoint x="440" y="260" as="targetPoint" />
          </mxGeometry>
        </mxCell>
      </root>
    </mxGraphModel>
  </diagram>
</mxfile>
